<svg width="173" height="63" viewBox="0 0 173 63" fill="none" xmlns="http://www.w3.org/2000/svg">
<path fill-rule="evenodd" clip-rule="evenodd" d="M3.77156 31.6286C3.77156 16.1155 40.9591 3.43789 86.837 3.43789C132.714 3.43789 169.899 16.1155 169.899 31.6286C169.899 47.1428 132.714 59.8214 86.837 59.8214C40.9591 59.8214 3.77156 47.1428 3.77156 31.6286ZM0.744446 31.6286C0.744446 48.6102 39.289 62.3763 86.837 62.3763C134.381 62.3763 172.923 48.6102 172.923 31.6286C172.923 14.6443 134.381 0.880676 86.837 0.880676C39.289 0.880676 0.744446 14.6443 0.744446 31.6286ZM77.7162 24.371C77.7725 24.6683 77.8883 24.7262 78.0233 24.7013C78.6935 24.5671 79.427 24.0158 79.8613 23.3767C80.2567 22.7973 80.4423 21.9612 80.0493 21.6261C79.6989 21.3248 79.1284 21.4099 78.7054 21.7836C77.8631 22.5277 77.6074 23.5836 77.716 24.3716L77.7162 24.371ZM44.1786 50.1594C39.2724 50.1916 34.95 47.1616 34.454 41.9128C34.1784 39.0042 35.0005 36.412 36.6464 34.2765C38.1069 32.3735 40.5783 30.7926 42.6701 30.4064C43.3508 30.2819 44.2654 30.3582 44.6435 30.8115C45.2366 31.5018 45.0661 32.2601 44.4731 32.5627C42.8771 33.3775 40.9568 34.7724 40.0066 36.6772C39.2359 38.2319 39.0802 40.1055 40.2573 41.8905C42.2276 44.8652 47.7197 44.947 52.8262 40.2029C54.0909 39.0418 55.2226 37.9263 56.373 36.6049C58.6222 34.0332 59.3703 33.0961 62.3599 28.9492C62.3921 28.9009 62.4081 28.8382 62.3921 28.8076C62.368 28.7514 62.3279 28.7433 62.2387 28.7353C60.2428 28.7915 58.5028 29.3855 56.8114 30.6495C56.3244 31.0047 55.6234 30.9548 55.3165 30.4871C54.975 29.9583 55.2201 29.2699 55.7819 28.8812C58.2558 27.1607 60.9375 26.7208 63.6855 26.2701C63.9597 26.2251 64.2346 26.18 64.51 26.1336C64.5075 26.1336 64.7206 26.1416 64.8942 25.9133C65.4217 25.2363 65.8946 24.5874 66.3653 23.9414C67.0063 23.0615 67.6434 22.1872 68.4093 21.2547C69.7475 19.6139 71.4762 18.1072 72.797 16.9755C74.39 15.6057 75.4893 15.0212 76.5339 14.4659C76.6983 14.3785 76.8613 14.2918 77.0246 14.2029C77.3412 14.0374 76.9845 13.8397 76.888 13.8397C76.3959 13.7472 75.9024 13.6527 75.4077 13.558L75.406 13.5577C69.1568 12.3613 62.7168 11.1283 56.5435 13.4137C51.9292 15.1357 49.9071 18.7948 50.8797 21.2399C51.5716 22.9743 53.8527 23.2562 55.9882 22.2112C57.7619 21.3421 59.4033 19.9415 60.5669 18.1384C61.2179 17.1371 62.5896 17.8596 61.8485 19.5983C59.8988 24.1808 56.1741 27.8156 51.6372 27.9691C47.7759 28.0945 45.2847 25.2539 45.2928 21.7495C45.3089 14.8375 53.0035 10.2843 61.0904 9.60365C67.9045 9.04052 74.4667 10.1414 81.1057 11.2551C83.9554 11.7332 86.8192 12.2136 89.7233 12.5659C97.1319 13.4631 104.235 13.4817 111.682 11.771C112.562 11.5798 113.18 12.1415 113.122 13.0306C113.05 14.3159 112.054 15.5537 109.602 16.8914C106.812 18.4211 103.894 18.8853 100.847 18.9102C95.7782 18.9545 90.9487 17.6081 86.1159 16.2609C83.9218 15.6493 81.727 15.0374 79.5089 14.5555C79.5103 14.6098 79.5139 14.666 79.5176 14.7227C79.5351 14.9906 79.5534 15.2712 79.3385 15.4332C75.4037 18.3355 71.847 21.2829 69.4649 25.4225C69.3846 25.5181 69.4247 25.6089 69.567 25.5993C70.2421 25.5634 70.895 25.5335 71.5354 25.5042L71.5357 25.5042L71.5359 25.5042C72.8572 25.4437 74.1255 25.3857 75.426 25.2818C75.7635 25.2497 75.7762 25.1693 75.7465 24.9234C75.5753 23.4965 75.9924 21.8694 77.2476 20.7502C78.5322 19.5985 80.1406 19.4675 81.2068 20.297C82.4191 21.2416 82.3117 22.9404 81.6488 24.2144C80.9737 25.507 79.8589 26.1984 78.7889 26.5341C78.7889 26.5341 78.5639 26.5823 78.5976 26.7864C78.6219 26.9832 79.1624 27.3551 79.615 27.6665C79.9129 27.8715 80.1728 28.0504 80.2223 28.1358C80.3428 28.3407 80.2786 28.6582 80.0592 28.9017C79.9049 29.0785 79.663 29.244 79.3536 29.2384C79.1121 29.2336 78.9621 29.1525 78.6635 28.9911L78.632 28.974C77.9778 28.6196 77.1603 28.0369 76.6149 27.35C76.4293 27.1178 76.3344 27.113 75.8707 27.1387C73.7813 27.2593 70.5234 27.5743 68.3161 27.8499C67.7808 27.9142 67.7021 28.0162 67.592 28.2019L67.3537 28.5949C63.9031 34.2863 60.2219 40.358 56.1891 44.4537C51.7638 48.9463 48.0854 50.1292 44.1805 50.1598L44.1786 50.1594ZM122.233 38.7542C122.257 38.9085 122.459 39.0564 122.655 39.1263C122.728 39.1504 122.763 39.1986 122.687 39.3626C122.21 40.3858 121.766 41.0392 121.21 41.8563C121.114 41.9967 121.015 42.142 120.912 42.2949C120.267 43.2576 119.54 44.0086 118.661 44.7311C117.334 45.8292 115.491 47.0245 113.967 46.221C113.291 45.8698 112.998 44.9226 113.011 44.1559C113.043 41.9997 114.002 39.7862 115.773 37.6106C117.933 34.9523 120.32 33.5735 121.886 34.3271C123.507 35.1002 122.99 36.9768 122.264 38.4498C122.208 38.5639 122.208 38.6603 122.232 38.7535L122.233 38.7542ZM139.625 21.9534C139.742 21.7477 139.619 21.5975 139.359 21.5975C138.689 21.5975 137.916 21.5982 137.135 21.599H137.135C136.337 21.5998 135.531 21.6005 134.819 21.6005C134.483 21.6005 134.309 21.6406 134.151 21.9541C133.808 22.61 130.948 26.9462 128.693 30.3642L128.691 30.367C127.517 32.1459 126.508 33.6757 126.104 34.3078C125.905 34.589 125.662 34.5496 125.634 34.2273C125.514 33.1305 124.567 31.8697 123.075 31.2664C121.937 30.8051 120.825 30.7215 119.669 30.875C117.582 31.1555 115.723 32.2563 114.089 33.4979C113.056 34.2826 112.084 35.1645 111.1 36.0565L111.1 36.0565C109.735 37.2936 108.35 38.5498 106.755 39.592C105.258 40.5684 103.206 41.42 101.834 40.1489C100.591 38.9972 100.732 36.4393 102.632 34.4609C102.833 34.2536 103.073 34.4287 103.035 34.6127C102.856 35.5074 103.075 36.3972 103.755 37.0211C104.584 37.7644 105.771 37.8483 106.787 37.3522C107.985 36.7583 108.689 35.6116 108.895 34.3101C109.212 32.2912 107.658 30.5106 105.713 30.3677C104.134 30.2568 102.619 30.8064 101.143 32.0247C100.403 32.6387 99.9824 33.0923 99.3423 34.0025C99.1864 34.2268 98.9468 34.2492 98.9541 33.9181C99.0264 31.3333 97.9584 29.879 95.8215 29.8316C94.1626 29.7914 92.3907 30.6919 91.0095 31.7931C89.875 32.7042 88.8473 33.8373 87.8062 34.9852C87.4578 35.3693 87.1079 35.7551 86.7521 36.1347C86.5753 36.3212 86.4217 36.3123 86.3719 35.9507C86.3317 34.2381 85.8986 32.5793 85.1061 31.4013C84.8256 30.9915 84.2352 30.7889 83.7392 31.0653C83.6969 31.0885 83.6352 31.1198 83.5592 31.1586C83.2233 31.3295 82.6064 31.6434 82.1333 32.0242C81.8456 32.2613 81.733 32.6045 81.8608 33.0444C82.6259 35.603 82.4579 38.512 81.4196 40.969C80.4663 43.2193 78.614 45.2488 76.4366 45.9358C75.0023 46.3906 73.5113 46.1681 72.5885 44.8964C71.3214 43.1414 71.8331 40.0892 73.7221 37.555C75.3891 35.3234 77.8005 33.9059 80.2056 32.9931C80.4885 32.8838 80.5472 32.7022 80.4668 32.4619C80.3872 32.2201 80.2781 31.9248 80.1861 31.6757L80.186 31.6755C80.1276 31.5173 80.076 31.3777 80.0433 31.2822C79.8223 30.6948 79.2048 30.5999 78.4505 30.6819C76.7029 30.8852 75.1264 31.484 73.5692 32.3178C69.4914 34.5014 67.4469 38.7276 66.551 40.9886C66.1194 42.0748 65.7506 42.7522 65.2739 43.353C64.631 44.161 63.824 44.8967 62.3484 46.1925C62.215 46.3115 62.1154 46.5589 62.2279 46.7896C62.3781 47.1014 63.1456 48.1853 63.3621 48.2819C63.6024 48.4001 63.8812 48.2337 63.9929 48.1549C65.0254 47.4549 66.2608 46.3456 66.8653 45.5931C67.0774 45.3352 67.2953 45.4437 67.4078 45.8351C67.9719 47.8478 69.4491 49.4912 71.4918 50.1787C75.2308 51.4396 79.1088 49.6145 82.0362 46.4372C83.2986 45.0667 84.0135 44.0281 84.5655 43.2262C84.827 42.8464 85.0518 42.5196 85.2811 42.2359C85.4757 41.9948 85.7007 41.7057 85.9533 41.3812L85.9533 41.3812C87.2691 39.6908 89.3306 37.0426 91.7127 35.2384C92.754 34.4452 93.9861 33.8402 94.6057 34.242C95.1031 34.5643 95.2639 35.3132 94.4659 36.7643C92.6712 40.0415 90.3522 43.6739 88.6626 46.3205L88.6625 46.3207C87.6267 47.9432 86.8275 49.1951 86.5306 49.7675C86.3876 50.0287 86.5145 50.2344 86.7861 50.2344C87.9252 50.2287 89.0567 50.2295 90.1326 50.2302H90.135H90.136C90.4898 50.2304 90.8376 50.2307 91.1777 50.2307C91.4067 50.2226 91.5089 50.115 91.6238 49.9534C92.1393 49.1466 92.6477 48.3488 93.1525 47.5565L93.1649 47.5371C94.8317 44.9214 96.4603 42.3657 98.1771 39.7441C98.3025 39.5424 98.4182 39.6958 98.423 39.7842C98.4712 40.5782 98.6641 41.664 99.1358 42.3772C99.983 43.6955 101.183 44.262 102.515 44.2706C103.574 44.2867 104.11 44.1219 105.252 43.6952C106.182 43.3504 106.928 42.898 107.501 42.4885C107.835 42.2555 107.894 42.6453 107.886 42.7047C107.371 45.4654 108.006 48.7366 110.75 50.0929C114.034 51.7119 117.641 49.4362 119.717 47.382C119.92 47.1843 120.138 47.2052 120.159 47.6319C120.207 48.4162 120.557 49.347 121.206 49.9983C122.946 51.744 126.456 51.0521 129.978 48.3257C132.24 46.5801 134.606 44.1138 136.744 41.5023C136.824 41.401 136.882 41.2387 136.727 41.0739C136.513 40.8499 136.237 40.6046 135.98 40.3776L135.98 40.3771C135.846 40.259 135.719 40.1459 135.608 40.0433C135.461 39.9179 135.245 39.954 135.121 40.0476C134.501 40.6375 133.898 41.2508 133.288 41.8716C131.743 43.4439 130.151 45.0641 128.107 46.473C127.146 47.144 125.614 47.6854 124.926 46.7535C124.657 46.3919 124.688 45.8919 124.95 45.2354C125.544 43.7539 132.437 33.095 136.569 26.7044L136.57 26.7032C138.219 24.1542 139.428 22.2845 139.622 21.9476L139.625 21.9534Z" fill="#2A2A2A" fill-opacity="0.6"/>
</svg>
