<svg width="144" height="45" viewBox="0 0 144 45" fill="none" xmlns="http://www.w3.org/2000/svg">
<path d="M73.807 0.659409V18.0114H73.6978C71.4999 15.4851 68.7538 14.6072 65.5675 14.6072C59.0406 14.6072 54.1241 19.0442 52.3983 24.9104C50.4302 18.4466 45.3545 14.4861 37.828 14.4861C31.7157 14.4861 26.8891 17.2297 24.3703 21.7004V16.1439H11.7362V10.1109H25.5236V0.659409H0.473938V43.0598H11.7362V25.2364H22.9616C22.627 26.5457 22.4484 27.9475 22.4484 29.4267C22.4484 38.2713 29.205 44.4772 37.828 44.4772C45.0791 44.4772 49.8576 41.073 52.3852 34.8665H42.7339C41.4282 36.7309 40.4379 37.2848 37.828 37.2848C34.8015 37.2848 32.1921 34.6442 32.1921 31.5141H51.8445C52.6968 38.5392 58.169 44.5977 65.6786 44.5977C68.918 44.5977 71.8839 43.0042 73.6978 40.3137H73.807V43.0586H83.735V0.659409H73.807ZM32.5056 25.3631C33.1319 22.6701 35.2205 20.9099 37.828 20.9099C40.6983 20.9099 42.6808 22.6158 43.2021 25.3631C43.4219 25.3631 32.5056 25.3631 32.5056 25.3631ZM67.7822 36.6035C64.1226 36.6035 61.8486 33.1937 61.8486 29.6334C61.8486 25.8277 63.8267 22.1681 67.7822 22.1681C71.8839 22.1681 73.5179 25.8277 73.5179 29.6334C73.5173 33.2424 71.7859 36.6035 67.7822 36.6035Z" fill="#2A2A2A" fill-opacity="0.6"/>
<path fill-rule="evenodd" clip-rule="evenodd" d="M93.7047 10.1097H107.269V0.659393H83.7349V43.0592H107.269V33.5827H93.7047V25.2363H107.269V16.1432H93.7047V10.1097ZM119.247 29.6019L107.27 43.059H119.521L125.343 36.4678L131.221 43.059H143.91L131.827 29.5464L143.746 16.143H131.551L125.839 22.6805L119.907 16.143H107.27L119.247 29.6019Z" fill="#2A2A2A" fill-opacity="0.6"/>
</svg>
