<svg width="99" height="82" viewBox="0 0 99 82" fill="none" xmlns="http://www.w3.org/2000/svg">
<path fill-rule="evenodd" clip-rule="evenodd" d="M18.4163 1.94281C18.4163 3.21 17.6773 3.11464 17.085 2.69878C14.957 1.20432 12.3479 0.129441 10.0175 0.146923C6.21858 0.174471 0.774745 2.0138 0.757263 10.0238V68.9174C0.815007 79.1471 5.73755 81.0585 10.5902 81.1099C13.3832 81.1365 15.0944 80.0531 16.4144 79.2174C16.8797 78.9228 17.2964 78.659 17.6948 78.4854C18.5011 78.1337 19.3832 78.9474 19.3832 80.4588H20.9518V42.9909H24.0991V41.7311H10.8063V42.9909H14.6624V75.2194C14.6624 77.8327 12.8872 79.8104 10.6506 79.8146C8.49602 79.8146 6.84528 77.7681 6.84528 75.2194V7.68225C6.84211 5.8461 7.16791 1.57728 10.0069 1.59741C15.4719 1.6382 18.3729 17.62 18.4132 25.8875H19.9818V0.879052H18.4206L18.4163 1.94281ZM84.4354 2.18994H87.7284C90.8428 2.18676 92.2891 5.09038 92.2891 7.28625V41.4633C92.2923 43.9261 90.8428 46.2094 88.0531 46.193H84.4354V2.18994ZM87.749 0.922749H74.6496V2.18994H78.1158V79.0149H74.6496V80.3737H89.4284V79.0149H84.4348V47.7547H88.7407C95.0057 47.7547 98.5715 44.4548 98.5715 40.0192V9.31841C98.5721 4.89384 95.4941 0.915862 87.749 0.922749ZM46.3754 12.0191L42.5463 46.3016H50.2845L46.3754 12.0191ZM54.0056 78.9979L50.4445 47.7044H42.3879L39.2872 75.3187C39.0128 77.2158 40.2768 79.0006 43.0681 78.9984V80.3568H33.205V79C36.9673 78.9435 37.2543 77.35 37.7214 74.7572L37.7387 74.6613L45.8568 0.90523H51.4537L60.1926 78.9979H63.6583V80.3562H50.5054V78.9979H54.0056Z" fill="#2A2A2A" fill-opacity="0.6"/>
</svg>
