<svg width="178" height="92" viewBox="0 0 178 92" fill="none" xmlns="http://www.w3.org/2000/svg">
<path d="M74.7609 28.3925C74.7609 28.3925 75.3424 27.5203 75.8307 26.8565C76.7208 25.6496 78.3295 23.9763 79.5391 22.9395C79.9122 22.6241 80.347 22.2634 80.347 22.2634C80.347 22.2634 79.6626 22.3347 79.2772 22.4142C78.3583 22.5939 77.0101 23.4895 76.3354 24.0682C75.2245 25.0173 74.0039 26.5643 74.5538 27.9358C74.6361 28.1333 74.7609 28.3925 74.7609 28.3925ZM80.9381 30.0451C82.6936 29.9272 84.3393 29.4184 85.8685 28.5722C87.3703 27.7328 89.577 26.0953 89.3521 24.167C89.2794 23.5457 88.8734 23.0739 88.3578 22.8531C87.6857 22.561 87.3374 22.6131 86.4802 22.8641C85.8603 23.0479 85.5819 23.1576 84.9963 23.4936C83.271 24.4948 80.8311 26.6356 79.5049 28.3459C79.1977 28.7464 78.8877 29.1976 78.6477 29.5048C78.4913 29.6927 78.3748 29.8696 78.3885 29.9176C78.4406 30.1137 80.2509 30.0945 80.9381 30.0451ZM76.4657 33.3298C76.286 33.5177 76.0954 33.984 75.8951 34.32C75.7895 34.4983 75.592 34.7287 75.4631 34.8193C75.0064 35.1553 74.621 35.1704 74.1767 34.7822C73.5595 34.2391 73.2029 33.3902 73.1769 32.5673C73.1632 32.2066 73.2221 31.813 73.1577 31.5058C73.0438 30.9956 72.5309 30.4717 72.2566 29.9821C71.9329 29.4019 71.671 28.3994 71.6394 27.752C71.5256 25.7305 72.5926 23.8707 73.9778 22.4005C75.3712 20.9152 77.1939 19.6809 79.1785 18.8429C81.0519 18.0502 83.8003 17.5126 85.8589 18.2271C86.5268 18.4575 87.4622 19.0281 87.9312 19.6219C88.03 19.7481 88.1123 19.8852 88.2151 19.9497C88.3043 20.0073 88.5443 20.0306 88.7349 20.0649C89.3932 20.1787 90.3396 20.6752 90.7249 21.0057C91.4971 21.6764 91.925 22.3169 92.1211 23.2453C92.5161 25.1119 91.4408 27.1623 90.2161 28.4076C88.1164 30.5567 86.0441 32.064 83.3587 33.1173C82.182 33.5781 80.3456 34.0073 79.007 33.8867C78.5928 33.8524 78.1636 33.744 77.7603 33.7139C77.556 33.696 76.8003 33.5054 76.7208 33.445C76.6206 33.3723 76.4931 33.3038 76.4657 33.3298ZM78.8644 37.4717C78.9453 37.4868 79.0728 37.5238 79.1812 37.5622C80.122 37.9215 80.5088 38.7938 80.7406 39.7484C81.2782 41.9702 81.5086 46.8814 81.5964 48.8083C81.6622 50.2484 81.6979 51.6734 81.7582 53.0983C81.809 54.3066 81.9049 55.914 81.6553 57.0482C81.5634 57.4555 81.2919 57.9246 80.901 58.1701C80.4526 58.4553 79.4363 58.4773 78.8781 58.3621C77.4998 58.0768 77.0513 57.1908 76.8565 55.8289C76.3889 52.5772 76.6124 46.1957 76.8894 43.5021C76.9786 42.6175 77.316 39.7676 77.7809 38.5744C77.9373 38.1684 78.276 37.3565 78.8644 37.4717ZM36.4144 42.3514C36.4144 42.3514 34.3736 42.4954 32.972 42.6518C31.1849 42.8424 27.8289 43.4226 25.8951 44.1179C25.3122 44.3209 24.1314 44.816 24.0285 45.4112C23.9243 46.0338 24.3056 46.5152 24.7348 47.0186C24.9817 47.3079 26.3806 48.6534 26.7715 48.9812C28.4159 50.3513 31.7486 52.4702 34.2077 53.4988C35.047 53.8485 36.4432 54.3478 36.4432 54.3478C36.4432 54.3478 36.3389 50.3746 36.3595 46.4617C36.3677 44.3936 36.4144 42.3514 36.4144 42.3514ZM73.8023 43.9327C73.9202 44.9998 73.6432 47.0186 73.5979 47.2846C73.5101 47.8977 73.0466 49.3117 72.9725 49.4859C72.5981 50.343 72.2319 51.0521 71.8397 51.7529C71.1704 52.9571 69.5822 54.8648 68.6359 55.6808C65.1277 58.7145 59.6938 60.4426 55.0308 61.0118C51.8696 61.3944 48.2351 61.3354 44.8819 60.7169C43.7298 60.5043 42.0155 60.1121 42.0155 60.1121C42.0155 60.1121 42.0196 60.7978 41.9634 61.282C41.9373 61.4986 41.77 62.0802 41.6781 62.268C41.4326 62.7714 41.0335 63.0306 40.4534 63.1403C39.7512 63.2747 39.0065 63.3145 38.3564 63.0402C37.2921 62.589 36.9081 61.5905 36.7243 60.4467C36.5735 59.5251 36.4157 57.9246 36.4157 57.9246C36.4157 57.9246 35.6203 57.5488 34.9551 57.2169C32.9144 56.2102 30.9737 54.9951 29.2799 53.7388C28.8109 53.3918 26.7921 51.6994 26.345 51.277C25.0955 50.0962 23.9723 48.914 23.1165 47.3998C22.4513 46.2176 22.2607 45.1657 22.7654 43.9135C23.4649 42.1676 25.9678 40.8497 27.6822 40.0995C28.9425 39.544 32.8526 38.2672 34.4792 38.0313C35.2459 37.9215 36.4363 37.7103 36.509 37.661C36.5392 37.639 36.5611 37.6198 36.5817 37.5938C36.6187 37.5403 36.6818 35.8095 36.6695 35.1786C36.6557 34.5559 37.1303 30.473 37.2825 29.6104C37.3648 29.14 37.7186 27.342 38.0807 26.8715C38.3152 26.5534 38.7335 26.5753 39.0737 26.7879C40.9375 27.944 41.5026 31.9652 41.6411 34.0115C41.7247 35.2568 41.7659 37.1316 41.7659 37.1316C41.7659 37.1316 43.904 37.0699 45.2206 37.1041C46.4975 37.1357 47.906 37.3387 49.2336 37.5499C50.9328 37.8187 54.2436 38.5415 56.1417 39.5056C57.7066 40.2969 59.1686 41.6341 59.6417 43.0481C60.0833 44.3442 60.0161 45.2384 59.3455 46.4083C58.5925 47.7304 57.1648 48.7096 55.7179 48.7905C55.2859 48.8193 53.6662 48.6026 53.1684 48.2172C52.9709 48.0609 52.9818 47.7839 53.1245 47.596C53.1779 47.5274 53.9336 47.131 54.3821 46.8924C54.6057 46.7703 54.7922 46.64 54.965 46.4809C55.338 46.1504 55.6713 45.7911 55.6343 45.3714C55.5821 44.8228 55.0048 44.4841 54.4507 44.2674C51.8586 43.2388 46.6826 42.3816 44.1783 42.2335C43.1991 42.1759 41.8084 42.1265 41.8084 42.1265L42.1019 55.94C42.1019 55.94 43.2539 56.1608 44.1605 56.309C44.683 56.3858 46.8884 56.5846 47.474 56.5997C51.9381 56.7177 56.9207 56.3199 61.0173 54.382C62.8153 53.5358 64.4652 52.4839 65.7133 51.0589C67.3618 49.1677 68.2244 46.5866 67.9954 43.8902C67.7444 40.9388 65.6694 37.4443 64.0154 35.3144C59.639 29.6844 52.1384 25.0584 45.5416 22.3457C38.8035 19.5766 32.1463 17.9802 24.9941 17.7142C23.1522 17.6483 19.131 17.7416 17.1026 18.3039C16.8091 18.3848 16.5183 18.4836 16.2481 18.5412C16.0342 18.5933 15.7023 18.7346 15.609 18.8072C15.5596 18.8525 15.5062 18.906 15.5062 18.906C15.5062 18.906 15.6323 18.9746 15.7517 19.0281C15.967 19.1227 16.8735 19.1762 17.3426 19.2612C17.7595 19.3408 18.1997 19.5643 18.3698 19.8729C18.5344 20.1636 18.5577 20.3927 18.3588 20.6354C17.898 21.1991 16.1645 21.1004 15.4033 20.9824C14.6106 20.8535 13.6245 20.6135 13.4421 19.9223C13.2336 19.109 13.6163 18.3121 14.0346 17.5743C14.8739 16.0999 16.0726 15.3319 17.8336 14.8533C20.3297 14.1675 23.4827 13.6861 25.8416 13.5956C31.1808 13.3968 36.2319 14.3266 41.4024 15.8997C44.3621 16.7925 48.2406 18.2943 51.0755 19.6617C53.108 20.6409 56.3173 22.4485 58.1194 23.6294C58.6872 24.0038 62.013 26.4464 62.5287 26.8757C63.6067 27.7561 65.0179 29.022 66.0356 30.0355C68.0105 31.9926 70.4668 34.9907 71.6627 37.3688C71.9466 37.9421 72.1716 38.5031 72.5391 39.1627C72.6667 39.3877 73.2139 40.7427 73.3044 41.1349C73.3936 41.5217 73.5252 42.0908 73.5444 42.1114C73.5719 42.3213 73.8215 43.4815 73.8023 43.9327ZM96.802 44.9367C96.9021 44.9463 96.9268 44.9504 97.0187 44.9641C98.6535 45.1863 100.255 45.4798 101.48 46.0284C102.617 46.5331 103.286 47.1667 103.894 48.3009C104.82 50.0194 104.881 52.4236 104.045 54.2449C103.418 55.5985 102.047 56.7355 100.796 57.339C99.4914 57.9698 98.2146 58.2688 96.7444 58.4361C94.1797 58.7173 91.4011 58.1879 89.0888 57.0688C87.7214 56.4009 86.0509 55.2516 85.2075 53.769C84.5876 52.68 84.6068 51.2688 85.3624 50.2374C86.5625 48.5944 89.134 48.2323 91.0747 48.3009C92.5531 48.3558 95.2111 48.8152 96.6168 49.3117C97.0077 49.4529 98.4409 50.0125 98.6905 50.2649C98.866 50.4459 98.9826 50.7024 98.9031 50.9451C98.5794 51.9257 96.1999 52.4428 95.5128 52.5456C93.6681 52.8268 92.7136 52.1314 90.6193 51.3044C90.0995 51.1015 89.4069 50.8765 88.8748 50.8272C87.9258 50.7366 86.7778 50.9986 86.5982 52.0396C86.5049 52.5758 87.133 53.075 87.6117 53.2821C88.7349 53.769 89.6483 53.9404 90.7565 53.9583C94.0192 54.0076 97.6879 53.4714 100.361 51.5787C100.73 51.3195 101.086 50.9355 101.092 50.4541C101.092 50.3924 101.004 49.874 100.837 49.8205C100.812 49.8095 100.786 49.8219 100.767 49.8178C100.705 49.7999 100.602 49.6312 100.516 49.5201C100.324 49.2856 99.549 48.9524 99.3968 48.8879C97.5974 48.1377 94.2729 47.7729 92.5572 47.6316C90.7606 47.478 87.934 47.2394 87.2537 47.1406C86.5556 47.0419 85.7958 46.9034 85.1883 46.6304C84.5835 46.3561 83.9882 45.7417 83.8099 45.0628C83.4972 43.8367 83.8991 42.3309 84.5793 41.3489C86.365 38.7815 90.5425 37.8091 93.6681 37.4223C96.6922 37.0452 101.58 37.0493 104.549 38.6279C105.009 38.872 105.245 39.101 105.146 39.592C104.954 40.5123 104.257 41.1048 103.422 41.3653C102.544 41.6451 100.724 41.7535 99.9262 41.8028C96.3453 42.0044 92.0182 41.8988 88.6101 42.8301C88.3427 42.9069 87.8819 43.0262 87.7296 43.1963C87.1961 43.775 88.7212 43.9396 89.049 44.0109C89.145 44.0301 89.1656 44.0342 89.2657 44.0438L96.802 44.9367ZM107.973 58.3292C106.527 57.7984 106.199 55.4641 106.132 54.2833C105.903 50.439 106.919 45.0903 108.21 41.4874C108.579 40.4615 109.11 38.7856 110.258 38.8802C111.048 38.9502 111.611 39.5591 112.054 40.1845C113.187 41.7823 114.676 43.9478 115.664 45.4551C116.768 47.1447 117.828 48.8468 118.87 50.3869C118.998 50.5734 119.119 50.7545 119.259 50.8697C119.448 51.0219 119.618 51.0301 119.695 50.8889C119.73 50.834 119.662 48.892 119.614 48.5025C119.533 47.8826 119.496 47.3806 119.426 46.8458C119.234 45.2919 118.739 43.1057 118.351 41.6273C117.923 39.9733 117.4 38.2493 117.009 36.6488C116.885 36.129 116.768 35.6037 116.772 35.1086C116.776 34.3927 117.236 33.9964 117.982 34.2638C119.452 34.7822 121.401 37.9737 121.969 39.0818C122.162 39.4562 122.927 41.3598 123.099 41.8934C123.709 43.7215 124.078 45.4551 124.247 47.4478C124.408 49.3844 124.273 52.2055 123.454 54.1146C123.154 54.8168 122.536 55.7617 122.023 56.2376C121.218 56.9837 119.614 57.5666 118.508 56.9357C117.299 56.25 115.311 52.8076 114.973 52.2192C113.819 50.2059 111.835 46.2684 111.528 45.8268C111.46 45.7294 111.373 45.6361 111.219 45.5895C111.102 45.5552 111.056 45.798 111.026 45.9557C110.828 47.1022 110.692 52.4647 110.69 52.6142C110.657 53.5166 110.613 55.7302 110.352 56.8205C110.182 57.5323 110.009 58.1166 109.355 58.4156C108.89 58.6254 108.536 58.5376 107.973 58.3292ZM127.9 57.9863C127.744 57.867 127.492 57.6091 127.308 57.402C127.279 57.3732 126.759 56.5942 126.656 56.3542C126.566 56.1471 126.497 55.9976 126.431 55.8248C125.958 54.6028 125.971 53.4001 126.233 52.0876C126.475 50.8628 126.706 50.8093 127.334 49.1279C127.374 49.036 127.393 48.9565 127.407 48.855C127.433 48.6246 127.06 47.0748 127.038 46.577C127.012 45.8172 127.601 45.2782 128.589 45.1739C128.679 45.1657 128.746 45.1671 128.812 45.1479C129.206 45.0519 129.458 44.2976 129.674 43.6927C129.974 42.8424 130.443 41.5464 130.443 41.5464C130.443 41.5464 129.195 41.2584 128.527 41.006C127.781 40.7248 127.217 40.3614 126.88 39.677C126.475 38.8761 126.741 38.4317 127.578 38.1725C127.885 38.0738 130.307 37.6088 131.072 37.5005C132.027 37.3606 132.925 37.2413 133.833 37.1288C134.623 37.0328 138.247 36.6132 139.4 36.6433C141.158 36.6941 142.299 37.4182 143.327 38.9063C143.879 39.7004 144.257 40.6439 143.423 41.1555C142.142 41.9331 137.992 41.9921 137.23 42.0003C136.019 42.0127 134.345 41.9921 134.345 41.9921L133.5 44.816C133.5 44.816 136.473 44.7844 138.144 44.7776C138.55 44.7776 138.956 44.7995 139.183 44.8475C140.036 45.0368 140.331 45.6924 140.366 46.6373C140.412 47.7427 140.204 48.2515 139.323 48.3996C138.868 48.4723 133.761 48.5025 133.068 48.5834C132.636 48.6301 132.179 48.6986 132.179 48.6986C132.179 48.6986 131.81 49.6614 131.489 50.6338C131.166 51.6473 130.889 52.68 130.889 52.68C130.889 52.68 131.148 52.691 131.363 52.691C131.723 52.6937 132.087 52.6416 132.373 52.5923C133.931 52.307 136.247 51.9641 138.148 51.6651C139.17 51.5019 139.684 51.4292 140.222 52.1068C140.687 52.7061 140.928 53.2081 140.961 53.9322C140.99 54.6138 140.47 55.065 139.835 55.5505C137.826 57.0866 134.391 58.7516 131.832 59.0368C130.65 59.1699 130.362 59.0382 129.327 58.768C129.129 58.7173 128.413 58.3826 128.42 58.347C128.42 58.347 128.032 58.0891 127.9 57.9863ZM160.19 43.7942C158.874 44.8969 157.173 47.1447 156.361 48.3119C155.276 49.8589 154.256 51.6309 153.279 53.0037C153.07 53.3123 152.44 54.4163 152.462 54.4534C152.506 54.5315 153.14 54.5068 153.791 54.3971C155.178 54.164 157.063 53.1902 158.07 52.3865C159.605 51.1563 160.673 49.4667 161.178 47.4904C161.401 46.592 161.515 44.709 160.879 43.871C160.754 43.7106 160.436 43.5844 160.19 43.7942ZM149.734 59.9393C149.734 59.9393 149.317 61.1626 149.011 62.1227C148.483 63.7794 147.322 68.2408 147.053 69.6274C146.648 71.6846 145.496 77.0759 145.437 77.1911C145.356 77.3475 145.303 77.3968 145.108 77.5216C144.634 77.8 144.443 77.7082 143.868 77.4009C143.122 77.0087 142.467 76.6082 141.907 75.869C140.783 74.4084 141.051 71.6599 141.271 70.0471C142.043 64.4062 142.823 61.9252 144.97 56.3103C145.005 56.2143 145.005 56.1924 144.961 56.1074C144.292 54.6824 143.931 52.9612 143.931 51.5705C143.937 47.1694 146.466 42.815 149.302 39.3177C149.516 39.0516 150.908 37.3839 151.54 37.4168C152.174 37.447 152.277 38.1862 152.182 38.8034C151.864 40.8359 150.434 42.9069 149.456 44.6212C148.356 46.5372 148.117 47.3258 147.58 49.0826C147.493 49.3569 147.278 50.6406 147.287 50.8052C147.309 51.277 147.412 51.8722 147.412 51.8722C147.412 51.8722 149.201 49.3679 150.382 47.8223C151.026 46.9733 151.49 46.4124 152.027 45.8076C152.572 45.1931 154.669 43.0139 155.272 42.4392C156.541 41.2282 157.103 40.7248 158.475 40.0131C159.562 39.4507 160.539 39.3109 161.599 40.0117C163.28 41.1157 164.013 43.4514 164.202 45.3454C164.423 47.6083 163.961 50.1538 162.962 52.0917C161.779 54.404 160.162 56.069 157.963 57.5255C155.715 59.0149 153.078 60.0284 150.491 59.9681C150.142 59.9598 149.734 59.9393 149.734 59.9393Z" fill="#2A2A2A" fill-opacity="0.6"/>
</svg>
