<svg width="137" height="49" viewBox="0 0 137 49" fill="none" xmlns="http://www.w3.org/2000/svg">
<path d="M8.27034 34.7845C8.84735 36.3161 9.6465 37.626 10.6679 38.7135C11.6893 39.8011 12.8988 40.6332 14.2973 41.21C15.6958 41.7876 17.2164 42.0767 18.8593 42.0767C20.4577 42.0767 21.9557 41.7766 23.3545 41.1778C24.7532 40.5782 25.9735 39.7343 27.0178 38.6467C28.0606 37.5592 28.8707 36.2603 29.4483 34.7515C30.0251 33.2412 30.3142 31.5557 30.3142 29.6895V0.919922H37.3062V47.5372H30.3802V43.209C28.8267 44.8514 26.995 46.1165 24.886 47.0052C22.7769 47.8932 20.5016 48.3372 18.0598 48.3372C15.5734 48.3372 13.2537 47.9042 11.1002 47.0382C8.94715 46.1723 7.08198 44.9409 5.50623 43.3426C3.93016 41.7443 2.68695 39.8239 1.77669 37.582C0.866422 35.3401 0.411133 32.8428 0.411133 30.0902V0.919922H7.4036V29.6902C7.40463 31.5541 7.69293 33.2522 8.27034 34.7845ZM49.3596 0.919922V17.9017C50.9139 16.3474 52.7118 15.1161 54.754 14.2061C56.7963 13.2962 59.017 12.8404 61.4144 12.8404C63.9007 12.8404 66.2314 13.3064 68.4064 14.2392C70.5831 15.1711 72.469 16.437 74.0681 18.0353C75.6656 19.6336 76.9307 21.5203 77.8643 23.6954C78.7962 25.8705 79.2622 28.1799 79.2622 30.6214C79.2622 33.0637 78.7962 35.3613 77.8643 37.5144C76.9307 39.6683 75.6656 41.544 74.0681 43.1423C72.469 44.7406 70.5831 46.0065 68.4064 46.9384C66.2314 47.8712 63.8999 48.3372 61.4144 48.3372C59.017 48.3372 56.7861 47.8822 54.721 46.9714C52.656 46.0615 50.8471 44.8286 49.2928 43.2758V47.538H42.6332V0.919922H49.3596ZM50.1257 35.2175C50.7245 36.6374 51.5582 37.8814 52.623 38.9469C53.6877 40.0124 54.9316 40.8556 56.3523 41.4772C57.7731 42.0995 59.3054 42.4099 60.9477 42.4099C62.546 42.4099 64.0555 42.0995 65.4762 41.4772C66.8969 40.8556 68.1291 40.0124 69.1718 38.9469C70.2153 37.8814 71.0483 36.6382 71.6691 35.2175C72.2906 33.7968 72.6018 32.2645 72.6018 30.6222C72.6018 28.9791 72.2906 27.4374 71.6691 25.9939C71.0475 24.5503 70.2153 23.2962 69.1718 22.2315C68.1291 21.1659 66.8969 20.3338 65.4762 19.7342C64.0555 19.1354 62.546 18.8353 60.9477 18.8353C59.3494 18.8353 57.8399 19.1354 56.4199 19.7342C54.9984 20.3338 53.7553 21.1667 52.6898 22.2315C51.6242 23.297 50.7811 24.5511 50.1587 25.9939C49.5371 27.4366 49.2268 28.9791 49.2268 30.6222C49.2268 32.2645 49.5269 33.7968 50.1257 35.2175ZM83.0576 23.7622C83.9447 21.6303 85.1651 19.7554 86.7202 18.1343C88.2737 16.514 90.1172 15.2379 92.2475 14.3059C94.3785 13.3732 96.688 12.9072 99.1734 12.9072C101.616 12.9072 103.88 13.3512 105.967 14.2392C108.053 15.1271 109.851 16.3592 111.36 17.9355C112.871 19.5118 114.046 21.3757 114.891 23.5288C115.733 25.6827 116.156 28.0244 116.156 30.5554V32.7533H88.5181C88.7397 34.13 89.1836 35.4061 89.85 36.5824C90.5163 37.7588 91.3493 38.7803 92.3472 39.6455C93.346 40.5114 94.4783 41.188 95.7442 41.676C97.0094 42.1655 98.3515 42.4099 99.7738 42.4099C103.814 42.4099 107.077 40.744 109.562 37.4138L114.425 41.0104C112.738 43.2751 110.651 45.051 108.165 46.3381C105.678 47.6252 102.882 48.2688 99.7738 48.2688C97.2428 48.2688 94.8783 47.8248 92.6812 46.9369C90.4833 46.0489 88.5739 44.8058 86.9543 43.2075C85.334 41.6092 84.0563 39.7327 83.1244 37.5796C82.1932 35.4265 81.7272 33.0841 81.7272 30.553C81.7257 28.1579 82.1696 25.8941 83.0576 23.7622ZM92.414 21.1321C90.5274 22.7084 89.2732 24.8057 88.6517 27.4256H109.364C108.787 24.8057 107.555 22.7084 105.669 21.1321C103.781 19.5558 101.572 18.7677 99.0422 18.7677C96.5096 18.7677 94.3015 19.5558 92.414 21.1321ZM128.742 21.8975C127.322 23.4518 126.611 25.5601 126.611 28.2247V47.538H119.885V13.5736H126.544V17.7689C127.388 16.3922 128.487 15.3047 129.841 14.5063C131.195 13.7064 132.805 13.3072 134.669 13.3072H137V19.5676H134.203C131.984 19.5668 130.163 20.3432 128.742 21.8975Z" fill="#2A2A2A" fill-opacity="0.6"/>
</svg>
