<svg width="134" height="110" viewBox="0 0 134 110" fill="none" xmlns="http://www.w3.org/2000/svg">
<path d="M61.3992 108.92C35.7839 106.851 14.4118 93.7812 5.01083 74.4562C-0.207873 63.7151 -1.02471 51.533 2.73257 40.3118C5.36954 32.4389 9.1379 26.492 15.5592 20.0815C20.53 15.1224 25.1694 11.712 31.1501 8.63405C38.6253 4.78311 45.5435 2.47742 54.3483 0.91031C59.573 -0.0218783 74.2643 -0.0218783 79.566 0.90481C95.6473 3.71843 108.248 9.94161 118.393 20.065C123.309 24.9692 126.029 28.66 128.726 34.0781C135.656 47.9914 135.137 64.0012 127.32 77.6661C119.183 91.889 103.393 102.819 84.779 107.111C78.7056 108.501 67.2573 109.389 61.3992 108.92ZM80.3055 104.733C95.0022 102.106 107.139 96.016 116.524 86.5543C135.264 67.6535 135.181 40.9569 116.313 22.1222C111.552 17.3674 106.885 14.0513 100.364 10.7966C77.8491 -0.452333 49.6689 0.590495 28.6497 13.4502C7.63633 26.3097 -1.30642 48.3937 6.11911 69.0656C12.844 87.7793 32.5669 101.869 56.7583 105.235C62.4695 106.029 74.4741 105.776 80.3055 104.733Z" fill="#2A2A2A" fill-opacity="0.6"/>
<path d="M48.9592 45.6623C48.9592 45.6623 48.2033 45.271 46.8517 45.293C44.4519 45.3268 42.786 46.8654 42.786 46.8654L42.1731 45.271H37.5282L37.5007 69.9536H43.2818V55.0086C43.2818 53.6452 43.927 52.9836 44.4519 52.509C45.9912 51.1134 48.9584 51.0686 48.9584 51.0686L48.9592 45.6623ZM121.23 45.6623C121.23 45.6623 120.468 45.271 119.117 45.293C116.707 45.3268 115.051 46.8654 115.051 46.8654L114.439 45.271H109.788L109.76 69.9536H115.547V55.0086C115.547 53.6452 116.187 52.9836 116.706 52.509C118.256 51.1134 121.224 51.0686 121.224 51.0686V45.6623H121.23ZM91.4998 74.1623H91.6318L91.7866 74.1741C91.8911 74.1796 91.9579 74.1953 92.0184 74.2118C92.1072 74.2503 92.174 74.3163 92.2015 74.3996C92.218 74.4491 92.2455 74.5591 92.2455 74.7187C92.2565 74.868 92.262 74.9898 92.284 75.0723H92.9291L92.9126 75C92.9016 74.9733 92.8961 74.9505 92.8961 74.923C92.8851 74.901 92.8851 74.8735 92.8851 74.8467V74.6149C92.8851 74.3556 92.8136 74.1615 92.6596 74.0405C92.5826 73.9792 92.4561 73.9305 92.2895 73.892C92.4726 73.8747 92.6211 73.8205 92.7366 73.7215C92.8639 73.6217 92.9189 73.4677 92.9189 73.2524C92.9189 72.9655 92.8089 72.7612 92.5826 72.6339C92.4443 72.5617 92.2738 72.5239 92.0695 72.5019C92.0255 72.4964 91.8542 72.4964 91.5344 72.4964H90.8169V75.0723H91.4958L91.4998 74.1623ZM92.1229 73.606C92.0349 73.672 91.9131 73.694 91.7591 73.694H91.4998V72.9435H91.6554C91.8251 72.9435 91.9532 72.96 92.0522 72.9993C92.1905 73.0606 92.262 73.1479 92.262 73.2917C92.2612 73.4402 92.2172 73.5337 92.1229 73.606ZM93.48 72.1334C93.0274 71.68 92.4812 71.4608 91.8369 71.4608C91.2295 71.4608 90.6943 71.6698 90.2417 72.0949C89.7506 72.542 89.5078 73.1038 89.5078 73.7875C89.5078 74.4389 89.7286 74.985 90.1867 75.4384C90.6283 75.8903 91.18 76.1111 91.8306 76.1111C92.464 76.1111 93.0109 75.8958 93.4572 75.4597C93.9263 74.996 94.1534 74.4452 94.1534 73.7875C94.1589 73.1368 93.9381 72.5907 93.48 72.1334ZM93.1987 72.4257C93.5696 72.806 93.7558 73.2587 93.7558 73.7828C93.7558 74.3116 93.5696 74.7642 93.1987 75.1501C92.8246 75.5249 92.383 75.7174 91.8416 75.7174C91.3065 75.7174 90.8664 75.5249 90.49 75.1556C90.1034 74.7799 89.9219 74.3218 89.9219 73.7812C89.9219 73.2626 90.1042 72.799 90.4798 72.4241C90.8546 72.0438 91.3065 71.8505 91.8416 71.8505C92.372 71.8513 92.8183 72.0446 93.1987 72.4257ZM54.5148 57.6072C54.5148 53.1879 55.6125 49.9889 58.3934 49.9889C61.1854 49.9889 62.2721 53.1879 62.2721 57.6072C62.2721 62.0273 61.1854 65.2255 58.3934 65.2255C55.6125 65.2255 54.5148 62.0257 54.5148 57.6072ZM67.8599 57.6292C67.8599 50.7991 64.6272 45.2765 58.3714 45.2765C52.258 45.2765 48.8814 50.7991 48.8814 57.6292C48.8814 64.4428 51.7888 69.9811 58.3714 69.9811C64.826 69.9811 67.8599 64.4428 67.8599 57.6292ZM98.6222 49.9881C100.515 49.9881 101.613 51.4497 102.143 53.7505H95.1301C95.648 51.4497 96.7575 49.9881 98.6222 49.9881ZM102.754 60.0337C102.401 63.1455 101.265 65.2255 99.019 65.2255C96.2986 65.2255 95.1844 62.142 95.1404 57.8665H102.891V57.8728H108.485V57.8665C108.557 55.6097 108.115 53.7505 108.115 53.7505H108.104C107.083 48.8244 104.017 45.271 98.9955 45.271C92.8828 45.271 89.5062 50.7943 89.5062 57.6237C89.5062 64.4373 92.4192 69.9764 98.9955 69.9764C104.673 69.9764 107.701 65.7009 108.346 60.029L102.754 60.0337Z" fill="#2A2A2A" fill-opacity="0.6"/>
<path d="M78.7277 65.2507C75.9421 65.2507 74.8215 62.0392 74.8215 57.5986C74.8215 53.1573 75.9366 49.9356 78.7277 49.9356C81.5361 49.9356 82.6229 53.1573 82.6229 57.5986C82.6229 62.0392 81.5361 65.2507 78.7277 65.2507ZM88.195 70.7678C88.1785 68.9691 88.195 45.2294 88.195 45.2294H82.0658V46.581C81.3208 45.7984 79.7815 45.3072 78.7057 45.2844C72.5592 45.1359 69.1724 50.752 69.1724 57.6151C69.1724 64.472 72.1019 69.9678 78.7167 69.9678C80.0078 69.9678 81.144 69.4272 82.1601 69.0296C82.4414 73.8567 82.6064 89.7832 72.0257 90.1148C60.5617 90.3741 61.8088 73.7742 61.709 73.2996C60.931 73.2996 55.469 73.3169 55.469 73.3169C55.469 73.3507 54.6305 94.2638 71.346 94.2638C89.4577 94.2693 88.217 72.5712 88.195 70.7678ZM46.0567 19.3941C38.007 19.3941 33.4455 23.9124 31.2107 29.2244L31.1942 29.2189C31.1612 29.3187 31.1227 29.4122 31.0897 29.5175C31.0732 29.5395 31.0622 29.567 31.0567 29.589C29.9864 32.4084 29.8591 34.7744 29.8591 35.0675C30.2284 48.3577 23.8572 49.1851 23.8572 49.1851C23.7519 48.0489 23.8572 33.6885 23.8572 33.6885H17.7333V69.9678H23.8792V54.8452C23.8792 54.2339 29.3075 54.8122 29.6776 61.7264C29.7114 62.3441 29.6776 69.9678 29.6776 69.9678H36.1651C36.0276 68.9738 37.4837 52.788 29.3688 52.6662C28.0777 52.645 36.0551 50.8235 35.8123 38.8849C35.751 36.2203 36.0551 33.815 36.6397 31.735C37.9795 27.465 40.4021 23.6256 45.3786 23.5596C56.5942 23.4158 55.3197 41.6879 55.4635 41.9747C56.2469 41.9747 61.709 41.9684 61.709 41.9684C61.7082 41.9417 62.8114 19.3941 46.0567 19.3941Z" fill="#2A2A2A" fill-opacity="0.6"/>
</svg>
